<?xml version="1.0" encoding="iso-8859-1"?>
<!-- Generator: Adobe Illustrator 19.0.0, SVG Export Plug-In . SVG Version: 6.00 Build 0)  -->
<svg version="1.1" id="Capa_1" xmlns="http://www.w3.org/2000/svg" xmlns:xlink="http://www.w3.org/1999/xlink" x="0px" y="0px"
	 viewBox="0 0 512 512" style="enable-background:new 0 0 512 512;" xml:space="preserve">
<g>
	<g>
		<path d="M451,99V0H241v99h-39.088c-37.574-33.065-94.25-33.065-131.825,0H0v390h70.153c17.169,14.683,40.787,23,65.847,23
			s48.678-8.317,65.847-23H512V99H451z M61,459H30V129h31V459z M181,467.337c-24.392,19.671-65.608,19.671-90,0V120.57
			c25.908-21.854,64.092-21.854,90,0V467.337z M271,30h150v69H271V30z M482,459H211V129c9.259,0,259.94,0,271,0V459z"/>
	</g>
</g>
<g>
	<g>
		<rect x="271" y="279" width="30" height="30"/>
	</g>
</g>
<g>
	<g>
		<rect x="271" y="339" width="30" height="30"/>
	</g>
</g>
<g>
	<g>
		<rect x="271" y="399" width="30" height="30"/>
	</g>
</g>
<g>
	<g>
		<rect x="331" y="279" width="30" height="30"/>
	</g>
</g>
<g>
	<g>
		<rect x="331" y="339" width="30" height="30"/>
	</g>
</g>
<g>
	<g>
		<rect x="331" y="399" width="30" height="30"/>
	</g>
</g>
<g>
	<g>
		<rect x="391" y="279" width="30" height="30"/>
	</g>
</g>
<g>
	<g>
		<rect x="391" y="339" width="30" height="30"/>
	</g>
</g>
<g>
	<g>
		<rect x="391" y="399" width="30" height="30"/>
	</g>
</g>
<g>
	<g>
		<path d="M241,159v90h210v-90H241z M421,219H271v-30h150V219z"/>
	</g>
</g>
<g>
</g>
<g>
</g>
<g>
</g>
<g>
</g>
<g>
</g>
<g>
</g>
<g>
</g>
<g>
</g>
<g>
</g>
<g>
</g>
<g>
</g>
<g>
</g>
<g>
</g>
<g>
</g>
<g>
</g>
</svg>
